<?xml version="1.0" encoding="UTF-8"?> <svg xmlns="http://www.w3.org/2000/svg" id="Layer_1" data-name="Layer 1" width="512" height="512" viewBox="0 0 512 512"><defs><style> .cls-1 { fill: #fff; } .cls-2 { fill: #002855; } .cls-3 { fill: #eee; } .cls-4 { fill: #93bb45; } .cls-5 { fill: #eabc07; } .cls-6 { fill: #2092c0; } </style></defs><g><path class="cls-1" d="M272.2768,452.6846c-8.9446,5.1636-23.5816,5.164-32.5265.0011L93.789,368.4374c-8.945-5.163-16.2636-17.8375-16.2636-28.1655V171.7555c0-10.328,7.3181-23.0034,16.2625-28.1674L239.7514,59.3162c8.9443-5.164,23.58-5.1635,32.5243.0011l145.937,84.27c8.9441,5.1646,16.2619,17.8405,16.2619,28.1685V340.2719c0,10.328-7.3183,23.003-16.2629,28.1666Z"></path><path class="cls-2" d="M71.0419,266.3124v72.891c0,12.5406,8.8864,27.93,19.7475,34.1992l145.4775,83.9689c10.8611,6.269,28.6335,6.2685,39.4942-.0013l145.45-83.9663c10.8607-6.27,19.7467-21.66,19.7467-34.2005v-72.891Z"></path><path class="cls-3" d="M239.7517,489.9073c8.9442,5.1643,23.58,5.1639,32.5238-.0009l178.17-102.8879c8.9439-5.1649,16.2616-17.8409,16.2616-28.1689V153.1229c0-10.3281-7.3182-23.0034-16.2626-28.1673L272.2764,22.0921c-8.9444-5.164-23.5809-5.1644-32.5256-.001L61.556,124.9565c-8.9447,5.1635-16.2631,17.8383-16.2631,28.1664V358.85c0,10.328,7.318,23.0036,16.2622,28.168ZM68.8622,166.7364c0-10.328,7.3181-23.0035,16.2623-28.1676L239.7515,49.292c8.9443-5.1642,23.58-5.1637,32.5241.001l154.6005,89.2747c8.9439,5.1648,16.2617,17.8407,16.2617,28.1687V345.2636c0,10.328-7.3182,23.0031-16.2628,28.1669L272.2766,462.6814c-8.9445,5.1637-23.5813,5.1642-32.5261.001L85.1256,373.4294c-8.9449-5.1631-16.2634-17.8378-16.2634-28.1658Z"></path><path class="cls-4" d="M239.7505,462.6961c8.9448,5.1632,23.5816,5.1627,32.5261-.001L426.875,373.4442c8.9446-5.1638,16.2628-17.8389,16.2628-28.167V166.75c0-10.328-7.3178-23.004-16.2617-28.1687l-154.6-89.2747c-8.944-5.1647-23.58-5.1652-32.5241-.001L85.1245,138.5825c-8.9442,5.1641-16.2623,17.84-16.2623,28.1676V345.2772c0,10.3281,7.3185,23.0027,16.2634,28.1659ZM77.5254,171.7555c0-10.328,7.3181-23.0034,16.2625-28.1674L239.7514,59.3162c8.9443-5.164,23.58-5.1635,32.5243.0011l145.937,84.27c8.9441,5.1646,16.2619,17.8405,16.2619,28.1685V340.2719c0,10.328-7.3183,23.003-16.2629,28.1666L272.2768,452.6846c-8.9446,5.1636-23.5816,5.164-32.5265.0011L93.789,368.4374c-8.945-5.163-16.2636-17.8375-16.2636-28.1655Z"></path><g><path class="cls-5" d="M306.2506,116.0482v36.4776a6.1116,6.1116,0,0,1-6.0936,6.0937H277.881a6.1116,6.1116,0,0,1-6.0936-6.0937v-15.429a12.0816,12.0816,0,0,1,5.1964-9.2674l24.07-14.7011C303.9147,111.3848,306.2506,112.6967,306.2506,116.0482Z"></path><path class="cls-6" d="M289.0836,99.9261v59.412c0,5.1775-2.9226,7.27-6.4945,7.27H258.8477c-3.5719,0-6.4945-2.496-6.4945-7.6735V120.5833c0-5.1774,2.068-7.3065,5.197-9.8L282.998,95.2363C286.7763,92.7,289.0836,94.6981,289.0836,99.9261Z"></path><path class="cls-2" d="M266.9876,99.6494v63.5914a10.6544,10.6544,0,0,1-10.6231,10.6232H217.5309a10.6544,10.6544,0,0,1-10.6231-10.6232V136.3435c0-5.8427,4.0718-13.1166,9.059-16.156l41.9614-25.6283C262.9153,91.52,266.9876,93.8067,266.9876,99.6494Z"></path></g><g><path class="cls-1" d="M112.6094,322.8008h-5.4317V311.709H97v11.0918H91.5508V297.1016H97v10.0722h10.1777V297.1016h5.4317Z"></path><path class="cls-1" d="M128.47,322.8008h-5.4492V301.6367H116.042v-4.5351h19.4062v4.5351H128.47Z"></path><path class="cls-1" d="M149.7441,322.8008l-6.1875-20.1621h-.1582q.3341,6.1523.334,8.209v11.9531h-4.8691V297.1016h7.4179l6.0821,19.6523h.1055l6.4511-19.6523h7.418v25.6992h-5.08V310.6367q0-.8613.0264-1.9863t.2373-5.9766h-.1582l-6.627,20.127Z"></path><path class="cls-1" d="M172.2666,322.8008V297.1016h5.4492v21.1992H188.14v4.5Z"></path><path class="cls-1" d="M224.6416,322.8008h-6.627l-2.0214-1.9863a12.9729,12.9729,0,0,1-7.5938,2.3378,10.7472,10.7472,0,0,1-6.8027-1.9687,6.4085,6.4085,0,0,1-2.5137-5.3262,7.5743,7.5743,0,0,1,1.0635-4.1045,10.0831,10.0831,0,0,1,3.6474-3.1728,11.4027,11.4027,0,0,1-1.916-2.8916,7.5044,7.5044,0,0,1-.5976-3.0147,5.2416,5.2416,0,0,1,2.0478-4.3066,8.5264,8.5264,0,0,1,5.4756-1.6348,8.3066,8.3066,0,0,1,5.23,1.5205,4.8877,4.8877,0,0,1,1.96,4.0694,6.5166,6.5166,0,0,1-1.2129,3.8232,12.0554,12.0554,0,0,1-3.92,3.2959l4.9921,4.8691a21.5785,21.5785,0,0,0,2.1621-5.291h5.59a25.3341,25.3341,0,0,1-1.74,4.6319,21.1411,21.1411,0,0,1-2.5137,3.999Zm-19.916-7.4531a2.9112,2.9112,0,0,0,1.1338,2.4082,4.5483,4.5483,0,0,0,2.9092.8964,7.5671,7.5671,0,0,0,3.99-1.0722l-5.8359-5.8008a7.3479,7.3479,0,0,0-1.6084,1.6172A3.3242,3.3242,0,0,0,204.7256,315.3477Zm6.3105-12.4629a1.8218,1.8218,0,0,0-.6328-1.4678,2.4418,2.4418,0,0,0-1.6347-.5361,2.8146,2.8146,0,0,0-1.8545.5625,1.9631,1.9631,0,0,0-.6768,1.6,5.379,5.379,0,0,0,1.67,3.41,10.4355,10.4355,0,0,0,2.32-1.6611A2.6276,2.6276,0,0,0,211.0361,302.8848Z"></path><path class="cls-1" d="M247.0645,301.2676a5.5526,5.5526,0,0,0-4.7637,2.3115,10.754,10.754,0,0,0-1.6875,6.4424q0,8.5958,6.4512,8.5957a20.3941,20.3941,0,0,0,6.5566-1.3535v4.57a18.2088,18.2088,0,0,1-7.0664,1.3183q-5.6074,0-8.5781-3.4013t-2.9707-9.7647a15.9456,15.9456,0,0,1,1.4589-7.0224,10.5435,10.5435,0,0,1,4.1914-4.6231,12.4067,12.4067,0,0,1,6.4083-1.6084,17.2921,17.2921,0,0,1,7.5234,1.8106l-1.7578,4.43a29.1068,29.1068,0,0,0-2.9-1.1954A8.6534,8.6534,0,0,0,247.0645,301.2676Z"></path><path class="cls-1" d="M273.7168,315.6641a6.6423,6.6423,0,0,1-2.5039,5.4843,10.8836,10.8836,0,0,1-6.9707,2.0039,16.3695,16.3695,0,0,1-7.2774-1.5468V316.543a30.0019,30.0019,0,0,0,4.4043,1.6347,13.0236,13.0236,0,0,0,3.295.4746,4.69,4.69,0,0,0,2.7519-.6855,2.344,2.344,0,0,0,.957-2.0391,2.2512,2.2512,0,0,0-.4218-1.3447,4.7163,4.7163,0,0,0-1.2383-1.1338,31.9292,31.9292,0,0,0-3.332-1.74,15.7853,15.7853,0,0,1-3.5332-2.127,7.9838,7.9838,0,0,1-1.8809-2.373,6.7714,6.7714,0,0,1-.7031-3.1641,6.6426,6.6426,0,0,1,2.3125-5.3613,9.602,9.602,0,0,1,6.3886-1.9512,15.097,15.097,0,0,1,3.8243.4746,26.2752,26.2752,0,0,1,3.8047,1.336l-1.7579,4.2363a25.7031,25.7031,0,0,0-3.4-1.1777,10.9533,10.9533,0,0,0-2.6464-.334,3.5031,3.5031,0,0,0-2.3731.7207,2.3773,2.3773,0,0,0-.8262,1.8808,2.3283,2.3283,0,0,0,.334,1.2569,3.6786,3.6786,0,0,0,1.0645,1.0371,32.8076,32.8076,0,0,0,3.4531,1.8017,13.745,13.745,0,0,1,4.94,3.4541A6.7416,6.7416,0,0,1,273.7168,315.6641Z"></path><path class="cls-1" d="M293.0049,315.6641a6.6431,6.6431,0,0,1-2.5049,5.4843,10.8808,10.8808,0,0,1-6.97,2.0039,16.3695,16.3695,0,0,1-7.2774-1.5468V316.543a29.9958,29.9958,0,0,0,4.4033,1.6347,13.0307,13.0307,0,0,0,3.2959.4746,4.6862,4.6862,0,0,0,2.751-.6855,2.3447,2.3447,0,0,0,.958-2.0391,2.2512,2.2512,0,0,0-.4218-1.3447A4.7221,4.7221,0,0,0,286,313.4492a31.8736,31.8736,0,0,0-3.3311-1.74,15.79,15.79,0,0,1-3.5332-2.127,7.9851,7.9851,0,0,1-1.8808-2.373,6.7714,6.7714,0,0,1-.7031-3.1641,6.6418,6.6418,0,0,1,2.3115-5.3613,9.6049,9.6049,0,0,1,6.39-1.9512,15.0891,15.0891,0,0,1,3.8233.4746,26.28,26.28,0,0,1,3.8056,1.336l-1.7578,4.2363a25.7133,25.7133,0,0,0-3.4013-1.1777,10.9469,10.9469,0,0,0-2.6456-.334,3.503,3.503,0,0,0-2.373.7207,2.3773,2.3773,0,0,0-.8262,1.8808,2.3283,2.3283,0,0,0,.334,1.2569,3.6737,3.6737,0,0,0,1.0635,1.0371,32.8626,32.8626,0,0,0,3.4541,1.8017,13.7444,13.7444,0,0,1,4.9394,3.4541A6.7411,6.7411,0,0,1,293.0049,315.6641Z"></path><path class="cls-1" d="M316.8506,301.2676a5.5526,5.5526,0,0,0-4.7637,2.3115,10.754,10.754,0,0,0-1.6875,6.4424q0,8.5958,6.4512,8.5957a20.3936,20.3936,0,0,0,6.5566-1.3535v4.57a18.2081,18.2081,0,0,1-7.0664,1.3183q-5.6074,0-8.5781-3.4013t-2.9707-9.7647a15.9442,15.9442,0,0,1,1.459-7.0224,10.5445,10.5445,0,0,1,4.1924-4.6231,12.4026,12.4026,0,0,1,6.4072-1.6084,17.2917,17.2917,0,0,1,7.5234,1.8106l-1.7578,4.43a29.0872,29.0872,0,0,0-2.9-1.1954A8.653,8.653,0,0,0,316.8506,301.2676Z"></path><path class="cls-1" d="M345.7715,312.94a10.56,10.56,0,0,1-2.5313,7.5058,9.1779,9.1779,0,0,1-7.0488,2.707,9.86,9.86,0,0,1-4.9922-1.2392,8.246,8.246,0,0,1-3.3222-3.56,11.96,11.96,0,0,1-1.16-5.414q0-4.8165,2.5137-7.4883a9.2307,9.2307,0,0,1,7.0664-2.6719,9.9164,9.9164,0,0,1,4.9922,1.2305,8.2122,8.2122,0,0,1,3.3222,3.5332A11.8494,11.8494,0,0,1,345.7715,312.94Zm-13.5879,0a8.2482,8.2482,0,0,0,.958,4.4121,3.4261,3.4261,0,0,0,3.12,1.4941,3.3718,3.3718,0,0,0,3.085-1.4853,8.3676,8.3676,0,0,0,.94-4.4209,8.1177,8.1177,0,0,0-.9492-4.377,4.0361,4.0361,0,0,0-6.2051-.0088A8.1105,8.1105,0,0,0,332.1836,312.94Z"></path><path class="cls-1" d="M355.8848,323.1523a6.3832,6.3832,0,0,1-5.44-2.6894,12.3646,12.3646,0,0,1-1.9775-7.4531q0-4.834,2.0127-7.5323a6.5371,6.5371,0,0,1,5.5459-2.6982,6.4109,6.4109,0,0,1,5.66,2.8828h.1758a21.9207,21.9207,0,0,1-.4043-3.92v-6.293h5.3789v27.3516h-4.1132l-1.0372-2.5488h-.2285A6.1351,6.1351,0,0,1,355.8848,323.1523Zm1.8808-4.2714a3.6331,3.6331,0,0,0,3.0147-1.1954,6.9534,6.9534,0,0,0,1.0459-4.06v-.58a8.0351,8.0351,0,0,0-.9756-4.5351,3.6235,3.6235,0,0,0-3.1729-1.3711,3.1469,3.1469,0,0,0-2.7861,1.5205,8.1124,8.1124,0,0,0-.9932,4.4209,7.6877,7.6877,0,0,0,1.002,4.3506A3.2735,3.2735,0,0,0,357.7656,318.8809Z"></path><path class="cls-1" d="M371.6748,298.0684q0-2.6191,2.918-2.6192t2.9179,2.6192a2.553,2.553,0,0,1-.7295,1.9423,3.0661,3.0661,0,0,1-2.1884.6944Q371.6749,300.7051,371.6748,298.0684Zm5.59,24.7324h-5.3613V303.1484h5.3613Z"></path><path class="cls-1" d="M400.49,322.8008h-5.3613V311.3223a5.5129,5.5129,0,0,0-.7559-3.19,2.75,2.75,0,0,0-2.4082-1.0634,3.62,3.62,0,0,0-3.2519,1.5029,9.3206,9.3206,0,0,0-1.002,4.9834v9.2461H382.35V303.1484h4.0957l.7207,2.5137h.2988a5.6657,5.6657,0,0,1,2.47-2.1533,8.41,8.41,0,0,1,3.5771-.73,6.8727,6.8727,0,0,1,5.2031,1.8545,7.4418,7.4418,0,0,1,1.7754,5.3525Z"></path><path class="cls-1" d="M422.5732,303.1484v2.7246l-3.0761.7911a5.3622,5.3622,0,0,1,.8437,2.9531,5.9621,5.9621,0,0,1-2.206,4.9307,9.5551,9.5551,0,0,1-6.126,1.7666l-.9668-.0528-.791-.0879a1.783,1.783,0,0,0-.8262,1.4063q0,1.16,2.9531,1.16h3.34a7.6186,7.6186,0,0,1,4.9306,1.3887,4.9636,4.9636,0,0,1,1.6963,4.0781,6.0479,6.0479,0,0,1-2.874,5.3438q-2.874,1.8984-8.2529,1.8984a11.4255,11.4255,0,0,1-6.2842-1.4326A4.5488,4.5488,0,0,1,402.7627,326a4.2047,4.2047,0,0,1,1.1074-2.9707,6.2887,6.2887,0,0,1,3.252-1.7051,3.5878,3.5878,0,0,1-1.4414-1.1513,2.8294,2.8294,0,0,1,.0351-3.5684,7.52,7.52,0,0,1,1.8809-1.4678,5.2744,5.2744,0,0,1-2.4522-2.1445,6.5265,6.5265,0,0,1-.9052-3.4805,6.1377,6.1377,0,0,1,2.0918-4.9746,9.0447,9.0447,0,0,1,5.9765-1.7578,15.2988,15.2988,0,0,1,1.96.1494q1.1337.1494,1.45.22Zm-15.17,22.43a1.9431,1.9431,0,0,0,1.0635,1.74,5.8523,5.8523,0,0,0,2.98.6328,10.5548,10.5548,0,0,0,4.5176-.791,2.411,2.411,0,0,0,1.6347-2.1622,1.53,1.53,0,0,0-.9668-1.5292,7.9158,7.9158,0,0,0-2.9882-.4219h-2.7774a4.2056,4.2056,0,0,0-2.47.6943A2.1414,2.1414,0,0,0,407.4033,325.5781Zm1.9512-15.9961a4.0017,4.0017,0,0,0,.73,2.5313,2.65,2.65,0,0,0,2.2236.9316,2.5952,2.5952,0,0,0,2.2149-.9316,4.109,4.109,0,0,0,.7031-2.5313q0-3.5508-2.918-3.5508Q409.3546,306.0312,409.3545,309.582Z"></path><path class="cls-1" d="M195.59,358.8643a6.6438,6.6438,0,0,1-2.5058,5.4843,10.8779,10.8779,0,0,1-6.9688,2.0039,16.369,16.369,0,0,1-7.2773-1.5468v-5.0625a29.99,29.99,0,0,0,4.4023,1.6347,13.0374,13.0374,0,0,0,3.2969.4746,4.6832,4.6832,0,0,0,2.75-.6855,2.3454,2.3454,0,0,0,.959-2.0391,2.2506,2.2506,0,0,0-.4219-1.3447,4.7257,4.7257,0,0,0-1.24-1.1338,31.8239,31.8239,0,0,0-3.33-1.74,15.79,15.79,0,0,1-3.5332-2.127,7.9854,7.9854,0,0,1-1.8809-2.373,6.7729,6.7729,0,0,1-.7031-3.1641,6.6409,6.6409,0,0,1,2.3106-5.3613,9.6075,9.6075,0,0,1,6.3906-1.9512,15.0818,15.0818,0,0,1,3.8223.4746,26.2828,26.2828,0,0,1,3.8066,1.336L193.709,345.98a25.7148,25.7148,0,0,0-3.4024-1.1777,10.9375,10.9375,0,0,0-2.6445-.334,3.5028,3.5028,0,0,0-2.373.7207,2.3771,2.3771,0,0,0-.8262,1.8808,2.3275,2.3275,0,0,0,.334,1.2569,3.6662,3.6662,0,0,0,1.0625,1.0371,32.9067,32.9067,0,0,0,3.4551,1.8017,13.7444,13.7444,0,0,1,4.9394,3.4541A6.7416,6.7416,0,0,1,195.59,358.8643Z"></path><path class="cls-1" d="M210.0781,366.3525a6.5177,6.5177,0,0,1-5.4316-2.5136h-.2813q.2813,2.4609.2813,2.8476v7.9629h-5.3613V346.3486h4.3593l.7559,2.5489h.2461a6.202,6.202,0,0,1,5.5723-2.918,6.3774,6.3774,0,0,1,5.4492,2.6894q1.9688,2.69,1.9687,7.4707a14.7505,14.7505,0,0,1-.9219,5.4668,7.6684,7.6684,0,0,1-2.6289,3.5332A6.734,6.734,0,0,1,210.0781,366.3525Zm-1.582-16.0839a3.3854,3.3854,0,0,0-2.9,1.2216,7.0141,7.0141,0,0,0-.9492,4.0342v.58a8.2774,8.2774,0,0,0,.9414,4.5351,3.3545,3.3545,0,0,0,2.9785,1.3711q3.6036,0,3.6035-5.9414a8.4848,8.4848,0,0,0-.8867-4.3505A3.0315,3.0315,0,0,0,208.4961,350.2686Z"></path><path class="cls-1" d="M230.4219,366.3525a10.1434,10.1434,0,0,1-7.418-2.6191q-2.6718-2.6192-2.6719-7.418,0-4.9394,2.4688-7.6377a8.7964,8.7964,0,0,1,6.83-2.6982,8.6561,8.6561,0,0,1,6.4863,2.373,8.9778,8.9778,0,0,1,2.32,6.5567v2.6015H225.7637a5.16,5.16,0,0,0,1.3535,3.5684,4.7621,4.7621,0,0,0,3.5508,1.2832,14.74,14.74,0,0,0,3.3574-.3691,16.7991,16.7991,0,0,0,3.3047-1.1778v4.1485a12.5952,12.5952,0,0,1-3.0059,1.0459A18.9534,18.9534,0,0,1,230.4219,366.3525Zm-.7559-16.5586a3.4008,3.4008,0,0,0-2.6719,1.0811,5.0039,5.0039,0,0,0-1.1074,3.0674H233.41a4.4694,4.4694,0,0,0-1.0372-3.0674A3.5114,3.5114,0,0,0,229.666,349.7939Z"></path><path class="cls-1" d="M250.2363,366.3525q-9.1758,0-9.1758-10.0722,0-5.01,2.4961-7.6553t7.1543-2.6455a13.6392,13.6392,0,0,1,6.1172,1.3359l-1.582,4.1485q-1.2657-.51-2.3555-.835a7.5889,7.5889,0,0,0-2.18-.3252q-4.1835,0-4.1836,5.9414,0,5.7657,4.1836,5.7656a9.5417,9.5417,0,0,0,2.8653-.413,10.3467,10.3467,0,0,0,2.6367-1.292v4.5879a8.6367,8.6367,0,0,1-2.627,1.1425A14.7833,14.7833,0,0,1,250.2363,366.3525Z"></path><path class="cls-1" d="M259.998,341.2686q0-2.6191,2.918-2.6192t2.918,2.6192a2.5535,2.5535,0,0,1-.73,1.9423,3.0662,3.0662,0,0,1-2.1885.6944Q259.9981,343.9053,259.998,341.2686Zm5.59,24.7324h-5.3613V346.3486h5.3613Z"></path><path class="cls-1" d="M283.1533,366.001l-1.0371-2.6719h-.1406a7.92,7.92,0,0,1-2.7861,2.3643,9.0051,9.0051,0,0,1-3.7354.6591,6.04,6.04,0,0,1-4.4561-1.6171,6.211,6.211,0,0,1-1.6259-4.6055,5.1861,5.1861,0,0,1,2.1884-4.6143q2.1885-1.4853,6.6006-1.6435l3.41-.1055v-.8613q0-2.9883-3.0586-2.9883a13.9383,13.9383,0,0,0-5.5371,1.4238L271.2,347.72a15.9763,15.9763,0,0,1,7.5234-1.7754,9.3719,9.3719,0,0,1,6.0645,1.7227,6.3665,6.3665,0,0,1,2.1094,5.2383V366.001Zm-1.582-9.1055-2.0742.07a6.6421,6.6421,0,0,0-3.4805.8438,2.65,2.65,0,0,0-1.1426,2.3554q0,2.2677,2.6016,2.2676a4.12,4.12,0,0,0,2.98-1.0722,3.7666,3.7666,0,0,0,1.1162-2.8477Z"></path><path class="cls-1" d="M297.2383,366.001H291.877V338.6494h5.3613Z"></path><path class="cls-1" d="M302.0947,341.2686q0-2.6191,2.918-2.6192t2.918,2.6192a2.5535,2.5535,0,0,1-.73,1.9423,3.0663,3.0663,0,0,1-2.1885.6944Q302.0948,343.9053,302.0947,341.2686Zm5.59,24.7324h-5.3614V346.3486h5.3614Z"></path><path class="cls-1" d="M326.4805,360.165a5.4106,5.4106,0,0,1-2.1006,4.6055q-2.1006,1.582-6.2842,1.582a19.7339,19.7339,0,0,1-3.6562-.29,13.8306,13.8306,0,0,1-2.83-.8525v-4.43a18.6916,18.6916,0,0,0,3.3662,1.1777,13.63,13.63,0,0,0,3.2959.4746q2.9179,0,2.918-1.6875a1.4085,1.4085,0,0,0-.3868-1.0283,5.6061,5.6061,0,0,0-1.3359-.8965q-.9492-.501-2.5313-1.1689a15.9037,15.9037,0,0,1-3.331-1.7578,4.9491,4.9491,0,0,1-1.5469-1.8545,6.1228,6.1228,0,0,1-.4834-2.5752,4.6685,4.6685,0,0,1,2.03-4.0518,9.89,9.89,0,0,1,5.7568-1.4326,16.34,16.34,0,0,1,6.9082,1.5469l-1.6172,3.8672q-1.4765-.6328-2.76-1.0372a8.6674,8.6674,0,0,0-2.6192-.4043q-2.373,0-2.373,1.2833a1.5088,1.5088,0,0,0,.7646,1.248,20.8,20.8,0,0,0,3.3487,1.5645,15.5537,15.5537,0,0,1,3.375,1.74,5.1458,5.1458,0,0,1,1.582,1.8633A5.7261,5.7261,0,0,1,326.4805,360.165Z"></path><path class="cls-1" d="M338.4033,362.0811a11.6208,11.6208,0,0,0,3.375-.6153v3.99a12.0342,12.0342,0,0,1-4.9219.8964q-3.2167,0-4.6845-1.6259a7.0776,7.0776,0,0,1-1.4678-4.878V350.374h-2.5664v-2.2676l2.9531-1.7929,1.5469-4.1485h3.4277v4.1836h5.502v4.0254h-5.502v9.4746a2.0929,2.0929,0,0,0,.6416,1.6875A2.5316,2.5316,0,0,0,338.4033,362.0811Z"></path></g><g><path class="cls-2" d="M114.3508,229.2448H111.2l-17.1-15.756v15.71H91.5979V197.2762H94.1v14.5681l15.7557-14.5681h3.012v.2279L96.5563,212.575l17.7945,16.4868Z"></path><path class="cls-2" d="M116.9454,206.6837v4.0189a9.14,9.14,0,0,1,8.1557-4.43c6.1168,0,10.3338,3.6992,10.3338,9.9559v13.0162h-2.2707v-12.97c0-5.1151-3.1975-7.8556-8.1557-7.81a7.8929,7.8929,0,0,0-8.0168,8.2209v12.559h-2.2708V206.6837Z"></path><path class="cls-2" d="M138.7711,218.01a11.6318,11.6318,0,1,1,23.2627,0c0,7.17-5.19,11.5548-11.6314,11.5548S138.7711,225.18,138.7711,218.01Zm21.0382,0a9.41,9.41,0,1,0-18.8139,0c0,5.8458,4.217,9.3627,9.407,9.3627S159.8093,223.8556,159.8093,218.01Z"></path><path class="cls-2" d="M188.4009,229.2448h-2.5024l-3.7072-9.8647-2.78-8.7686-2.873,8.8142-3.7074,9.8191h-2.5022l-8.1559-22.5611h2.5025l6.9046,19.958,6.9973-19.958h1.6218l6.951,19.958,6.8582-19.958H196.51Z"></path><path class="cls-2" d="M200.9589,197.2762v31.9686h-2.2707V197.2762Z"></path><path class="cls-2" d="M204.48,217.9643a11.4243,11.4243,0,0,1,11.6311-11.646c6.4413,0,12.1874,3.8822,11.307,12.6965H206.797a8.9582,8.9582,0,0,0,9.3143,8.3577c3.0122,0,6.534-1.1873,8.2486-3.4257l1.6218,1.2791c-2.2241,2.8773-6.2094,4.3387-9.87,4.3387C209.67,229.5646,204.48,225.1347,204.48,217.9643Zm20.899-.9131c-.0462-5.5723-3.7534-8.6775-9.2679-8.6775a9.0963,9.0963,0,0,0-9.3143,8.6775Z"></path><path class="cls-2" d="M253.7389,197.2762v31.9686h-2.2242v-4.9782a10.8106,10.8106,0,0,1-9.5459,5.3436c-6.395,0-11.4461-4.1557-11.4461-11.6459,0-7.444,5.0975-11.646,11.4923-11.646,3.9389,0,7.6461,1.6445,9.5,5.2981v-14.34ZM232.747,217.9643c0,6.2567,4.2169,9.4537,9.3606,9.4537a9.4773,9.4773,0,0,0,0-18.9531C236.9639,208.4649,232.747,211.6164,232.747,217.9643Z"></path><path class="cls-2" d="M277.14,205.7706l1.4829,1.2784-2.2244,2.5576a10.4879,10.4879,0,0,1,2.8268,7.6725,10.6558,10.6558,0,0,1-6.1633,9.5906c4.0317,1.4158,6.2559,4.202,6.2559,8.0842,0,6.0737-4.8193,8.9965-10.89,8.9965s-10.8436-3.2882-10.8436-8.9965h2.2706c0,4.6122,3.9853,6.8044,8.573,6.8044s8.6656-2.0092,8.6656-6.8044c0-4.8416-4.4023-6.76-8.6656-6.76-6.6266,0-10.7509-4.8865-10.7509-10.9153,0-7.033,4.8194-11.0064,10.7509-11.0064a11.7364,11.7364,0,0,1,6.4876,2.0554Zm-17.192,11.5085c0,4.6585,3.2436,8.6775,8.48,8.6775a8.7177,8.7177,0,0,0,8.5727-8.6775c0-5.7083-3.8461-8.7686-8.5727-8.7686C263.7479,208.5105,259.948,211.3878,259.948,217.2791Z"></path><path class="cls-2" d="M281.0787,217.9643a11.4246,11.4246,0,0,1,11.6313-11.646c6.4412,0,12.1873,3.8822,11.3069,12.6965H283.3957a8.9581,8.9581,0,0,0,9.3143,8.3577c3.012,0,6.5339-1.1873,8.2485-3.4257l1.622,1.2791c-2.2245,2.8773-6.21,4.3387-9.87,4.3387C286.2689,229.5646,281.0787,225.1347,281.0787,217.9643Zm20.8993-.9131c-.0464-5.5723-3.7536-8.6775-9.268-8.6775a9.0963,9.0963,0,0,0-9.3143,8.6775Z"></path><path class="cls-2" d="M322.6452,220.2333h-8.788v9.0115h-5.8586V198.6226c4.8821,0,9.7644-.0435,14.6466-.0435C337.8245,198.5791,337.8687,220.2333,322.6452,220.2333Zm-8.788-5.2933h8.788c7.5008,0,7.4564-10.8492,0-10.8492h-8.788Z"></path><path class="cls-2" d="M341.9945,201.5972c0,4.1564-6.3914,4.1564-6.3914,0S341.9945,197.4415,341.9945,201.5972Zm-5.9031,5.9934v21.6542h5.415V207.5906Z"></path><path class="cls-2" d="M350.2491,198.6662v30.5786h-5.37V198.6662Z"></path><path class="cls-2" d="M358.8589,198.6662v30.5786h-5.37V198.6662Z"></path><path class="cls-2" d="M379.4521,207.6784h5.193v21.5664h-5.1042l-.2662-3.1494c-1.2429,2.5371-4.66,3.7618-7.1014,3.8053-6.48.0443-11.2736-3.8931-11.2736-11.4609,0-7.4371,5.0154-11.33,11.4068-11.2867,2.9294,0,5.7253,1.356,6.9682,3.5ZM366.3146,218.44a6.2217,6.2217,0,0,0,6.48,6.5616c8.5216,0,8.5216-13.08,0-13.08A6.1867,6.1867,0,0,0,366.3146,218.44Z"></path><path class="cls-2" d="M392.7211,207.6784l.3994,2.4935c1.6866-2.6691,3.95-3.0623,6.1693-3.0623a8.3723,8.3723,0,0,1,5.6369,2.0561l-2.4412,4.6367a5.4567,5.4567,0,0,0-3.906-1.4c-2.8406,0-5.459,1.4873-5.459,5.4682v11.3737h-5.4148V207.6784Z"></path><path class="cls-2" d="M419.7493,213.4092a7.4441,7.4441,0,0,0-5.4151-1.9255c-2.5742,0-3.9945.7879-3.9945,2.1439,0,1.4,1.2873,2.1874,4.0836,2.3622,4.1275.2626,9.3647,1.1811,9.3647,6.9119,0,3.806-3.1512,7.0868-9.4093,7.0868-3.462,0-6.9238-.5688-10.1195-3.85l2.663-3.806c1.5533,1.7064,5.1042,2.9746,7.5453,3.0189,2.0418.0435,3.95-1.0063,3.95-2.5814,0-1.4873-1.2431-2.1-4.35-2.2745-4.1279-.3061-9.0544-1.7941-9.0544-6.6935,0-4.9871,5.2375-6.737,9.2319-6.737,3.4175,0,5.9917.6565,8.5217,2.8439Z"></path></g></g></svg> 