<?xml version="1.0" encoding="UTF-8"?> <svg xmlns="http://www.w3.org/2000/svg" id="Layer_1" data-name="Layer 1" width="512" height="512" viewBox="0 0 512 512"><defs><style> .cls-1 { fill: #fff; } .cls-2 { fill: #002855; } .cls-3 { fill: #eee; } .cls-4 { fill: #93bb45; } .cls-5 { fill: #eabc07; } .cls-6 { fill: #2092c0; } </style></defs><g><path class="cls-1" d="M272.2768,452.6846c-8.9446,5.1636-23.5816,5.164-32.5265.0011L93.789,368.4374c-8.945-5.163-16.2636-17.8375-16.2636-28.1655V171.7555c0-10.328,7.3181-23.0034,16.2625-28.1674L239.7514,59.3162c8.9443-5.164,23.58-5.1635,32.5243.0011l145.937,84.27c8.9441,5.1646,16.2619,17.8405,16.2619,28.1685V340.2719c0,10.328-7.3183,23.003-16.2629,28.1666Z"></path><path class="cls-2" d="M71.0419,266.3124v72.891c0,12.5406,8.8864,27.93,19.7475,34.1992l145.4775,83.9689c10.8611,6.269,28.6335,6.2685,39.4942-.0013l145.45-83.9663c10.8607-6.27,19.7467-21.66,19.7467-34.2005v-72.891Z"></path><path class="cls-3" d="M239.7517,489.9073c8.9442,5.1643,23.58,5.1639,32.5238-.0009l178.17-102.8879c8.9439-5.1649,16.2616-17.8409,16.2616-28.1689V153.1229c0-10.3281-7.3182-23.0034-16.2626-28.1673L272.2764,22.0921c-8.9444-5.164-23.5809-5.1644-32.5256-.001L61.556,124.9565c-8.9447,5.1635-16.2631,17.8383-16.2631,28.1664V358.85c0,10.328,7.318,23.0036,16.2622,28.168ZM68.8622,166.7364c0-10.328,7.3181-23.0035,16.2623-28.1676L239.7515,49.292c8.9443-5.1642,23.58-5.1637,32.5241.001l154.6005,89.2747c8.9439,5.1648,16.2617,17.8407,16.2617,28.1687V345.2636c0,10.328-7.3182,23.0031-16.2628,28.1669L272.2766,462.6814c-8.9445,5.1637-23.5813,5.1642-32.5261.001L85.1256,373.4294c-8.9449-5.1631-16.2634-17.8378-16.2634-28.1658Z"></path><path class="cls-4" d="M239.7505,462.6961c8.9448,5.1632,23.5816,5.1627,32.5261-.001L426.875,373.4442c8.9446-5.1638,16.2628-17.8389,16.2628-28.167V166.75c0-10.328-7.3178-23.004-16.2617-28.1687l-154.6-89.2747c-8.944-5.1647-23.58-5.1652-32.5241-.001L85.1245,138.5825c-8.9442,5.1641-16.2623,17.84-16.2623,28.1676V345.2772c0,10.3281,7.3185,23.0027,16.2634,28.1659ZM77.5254,171.7555c0-10.328,7.3181-23.0034,16.2625-28.1674L239.7514,59.3162c8.9443-5.164,23.58-5.1635,32.5243.0011l145.937,84.27c8.9441,5.1646,16.2619,17.8405,16.2619,28.1685V340.2719c0,10.328-7.3183,23.003-16.2629,28.1666L272.2768,452.6846c-8.9446,5.1636-23.5816,5.164-32.5265.0011L93.789,368.4374c-8.945-5.163-16.2636-17.8375-16.2636-28.1655Z"></path><g><path class="cls-5" d="M306.2506,116.0482v36.4776a6.1116,6.1116,0,0,1-6.0936,6.0937H277.881a6.1116,6.1116,0,0,1-6.0936-6.0937v-15.429a12.0816,12.0816,0,0,1,5.1964-9.2674l24.07-14.7011C303.9147,111.3848,306.2506,112.6967,306.2506,116.0482Z"></path><path class="cls-6" d="M289.0836,99.9261v59.412c0,5.1775-2.9226,7.27-6.4945,7.27H258.8477c-3.5719,0-6.4945-2.496-6.4945-7.6735V120.5833c0-5.1774,2.068-7.3065,5.197-9.8L282.998,95.2363C286.7763,92.7,289.0836,94.6981,289.0836,99.9261Z"></path><path class="cls-2" d="M266.9876,99.6494v63.5914a10.6544,10.6544,0,0,1-10.6231,10.6232H217.5309a10.6544,10.6544,0,0,1-10.6231-10.6232V136.3435c0-5.8427,4.0718-13.1166,9.059-16.156l41.9614-25.6283C262.9153,91.52,266.9876,93.8067,266.9876,99.6494Z"></path></g><g><path class="cls-1" d="M91.3906,330.9893a12.9128,12.9128,0,0,1-3.4853-.419v-4.9131a11.5485,11.5485,0,0,0,2.78.3809,3.1411,3.1411,0,0,0,2.78-1.209,6.7353,6.7353,0,0,0,.8379-3.78V294.96h5.9033v26.0507q0,4.875-2.2275,7.4268T91.3906,330.9893Z"></path><path class="cls-1" d="M119.6934,322.8008l-1.1231-2.8946h-.1523a8.59,8.59,0,0,1-3.0186,2.5616,9.765,9.765,0,0,1-4.0469.7138,6.5419,6.5419,0,0,1-4.8271-1.7519,6.7264,6.7264,0,0,1-1.7617-4.9893,5.618,5.618,0,0,1,2.3711-4.999q2.37-1.6085,7.15-1.78l3.6943-.1142v-.9336q0-3.2358-3.3135-3.2363a15.0953,15.0953,0,0,0-5.998,1.5419l-1.9239-3.9228a17.3086,17.3086,0,0,1,8.15-1.9238q4.2848,0,6.57,1.8672a6.8959,6.8959,0,0,1,2.2852,5.6738v14.1875Zm-1.7139-9.8643-2.2471.0762a7.1961,7.1961,0,0,0-3.77.9141,2.87,2.87,0,0,0-1.2373,2.5517q0,2.4565,2.8184,2.457a4.4635,4.4635,0,0,0,3.2275-1.1621,4.0815,4.0815,0,0,0,1.209-3.0849Z"></path><path class="cls-1" d="M134.21,322.8008l-8.1123-21.29h6.0742l4.1133,12.13a21.6709,21.6709,0,0,1,.8574,4.3614h.1142a18.9756,18.9756,0,0,1,.8565-4.3614l4.0947-12.13h6.0742l-8.1123,21.29Z"></path><path class="cls-1" d="M164.2646,322.8008l-1.123-2.8946h-.1523a8.59,8.59,0,0,1-3.0186,2.5616,9.7653,9.7653,0,0,1-4.0469.7138,6.5419,6.5419,0,0,1-4.8271-1.7519,6.7264,6.7264,0,0,1-1.7617-4.9893,5.618,5.618,0,0,1,2.3711-4.999q2.37-1.6085,7.15-1.78l3.6944-.1142v-.9336q0-3.2358-3.3135-3.2363a15.0953,15.0953,0,0,0-5.998,1.5419l-1.9239-3.9228a17.3086,17.3086,0,0,1,8.15-1.9238q4.2848,0,6.57,1.8672a6.8959,6.8959,0,0,1,2.2852,5.6738v14.1875Zm-1.7138-9.8643-2.2471.0762a7.1961,7.1961,0,0,0-3.77.9141,2.87,2.87,0,0,0-1.2373,2.5517q0,2.4565,2.8184,2.457a4.4635,4.4635,0,0,0,3.2275-1.1621,4.0815,4.0815,0,0,0,1.209-3.0849Z"></path><path class="cls-1" d="M190.6064,315.0693a7.1976,7.1976,0,0,1-2.7128,5.9414q-2.7144,2.171-7.5508,2.1709a17.7336,17.7336,0,0,1-7.8838-1.6757v-5.4844a32.5961,32.5961,0,0,0,4.77,1.7715,14.1523,14.1523,0,0,0,3.57.5136,5.0865,5.0865,0,0,0,2.9805-.7421,2.5421,2.5421,0,0,0,1.0371-2.209,2.439,2.439,0,0,0-.457-1.4571,5.113,5.113,0,0,0-1.3418-1.2285,34.6574,34.6574,0,0,0-3.6094-1.8847,17.1365,17.1365,0,0,1-3.8272-2.3047,8.6523,8.6523,0,0,1-2.0381-2.57,7.3369,7.3369,0,0,1-.7617-3.4278,7.1954,7.1954,0,0,1,2.5049-5.8086,10.4038,10.4038,0,0,1,6.9219-2.1133,16.3407,16.3407,0,0,1,4.1416.5137,28.451,28.451,0,0,1,4.123,1.4473l-1.9043,4.59a27.9025,27.9025,0,0,0-3.6845-1.2763,11.8675,11.8675,0,0,0-2.8662-.3623,3.7964,3.7964,0,0,0-2.5713.7812,2.574,2.574,0,0,0-.8946,2.0371,2.5229,2.5229,0,0,0,.3614,1.3623,3.9737,3.9737,0,0,0,1.1523,1.1231,35.4625,35.4625,0,0,0,3.7422,1.9521,14.8818,14.8818,0,0,1,5.3506,3.7422A7.3016,7.3016,0,0,1,190.6064,315.0693Z"></path><path class="cls-1" d="M203.2568,323.1816q-9.94,0-9.94-10.9121,0-5.4258,2.7041-8.2929,2.7041-2.8653,7.75-2.8653a14.7764,14.7764,0,0,1,6.627,1.4473l-1.7139,4.4941q-1.3712-.5522-2.5518-.9052a8.2383,8.2383,0,0,0-2.3613-.3526q-4.5323,0-4.5322,6.4375,0,6.2462,4.5322,6.2461a10.3218,10.3218,0,0,0,3.1045-.4482,11.1936,11.1936,0,0,0,2.8564-1.3994v4.9707a9.3638,9.3638,0,0,1-2.8466,1.2373A16.017,16.017,0,0,1,203.2568,323.1816Z"></path><path class="cls-1" d="M225.9609,301.1113a9.381,9.381,0,0,1,1.962.1709l-.4385,5.4463a6.6565,6.6565,0,0,0-1.7139-.19,6.1534,6.1534,0,0,0-4.332,1.4287,5.1587,5.1587,0,0,0-1.5518,3.998v10.836h-5.8086v-21.29h4.3994l.8565,3.58h.2861a8.0011,8.0011,0,0,1,2.6748-2.8847A6.5948,6.5948,0,0,1,225.9609,301.1113Z"></path><path class="cls-1" d="M230.9551,296.0078q0-2.8374,3.1611-2.8379t3.1611,2.8379a2.7652,2.7652,0,0,1-.79,2.1035,3.3207,3.3207,0,0,1-2.3711.752Q230.9551,298.8633,230.9551,296.0078Zm6.0556,26.793h-5.8076v-21.29h5.8076Z"></path><path class="cls-1" d="M254.2119,323.1816a7.06,7.06,0,0,1-5.8838-2.7226h-.3047q.3048,2.666.3047,3.084V332.17H242.52V301.5107h4.7227l.8193,2.7608h.2666a6.7194,6.7194,0,0,1,6.0362-3.16,6.9084,6.9084,0,0,1,5.9033,2.9131q2.1328,2.9136,2.1328,8.0928a15.9489,15.9489,0,0,1-1,5.9228,8.3018,8.3018,0,0,1-2.8457,3.8272A7.2944,7.2944,0,0,1,254.2119,323.1816Zm-1.7139-17.4238a3.6649,3.6649,0,0,0-3.1416,1.3233,7.5971,7.5971,0,0,0-1.0283,4.37v.6289a8.9614,8.9614,0,0,0,1.0186,4.9121,3.6359,3.6359,0,0,0,3.2275,1.4863q3.9039,0,3.9043-6.4375a9.1993,9.1993,0,0,0-.9619-4.7129A3.2837,3.2837,0,0,0,252.498,305.7578Z"></path><path class="cls-1" d="M275.584,318.5547a12.5938,12.5938,0,0,0,3.6562-.667v4.3232a13.0523,13.0523,0,0,1-5.332.9707q-3.4835,0-5.0742-1.7617a7.6628,7.6628,0,0,1-1.59-5.2842V305.8711h-2.7812V303.415l3.1992-1.9423,1.6758-4.4942h3.7139v4.5322h5.96v4.36h-5.96v10.2646a2.2661,2.2661,0,0,0,.6953,1.8282A2.74,2.74,0,0,0,275.584,318.5547Z"></path><path class="cls-1" d="M304.7881,299.4727a6.0141,6.0141,0,0,0-5.1611,2.5048,11.65,11.65,0,0,0-1.8282,6.9795q0,9.3107,6.9893,9.3116a22.09,22.09,0,0,0,7.1025-1.4659v4.9512a19.7428,19.7428,0,0,1-7.6552,1.4277q-6.0749,0-9.293-3.6845t-3.2188-10.5791a17.2747,17.2747,0,0,1,1.5811-7.6075,11.4206,11.4206,0,0,1,4.542-5.0078,13.4281,13.4281,0,0,1,6.9414-1.7422,18.74,18.74,0,0,1,8.15,1.961l-1.9043,4.7988a31.6405,31.6405,0,0,0-3.1426-1.2949A9.375,9.375,0,0,0,304.7881,299.4727Z"></path><path class="cls-1" d="M336.1191,312.1172q0,5.2-2.7421,8.1318a9.9442,9.9442,0,0,1-7.6368,2.9326,10.68,10.68,0,0,1-5.4082-1.3427,8.9366,8.9366,0,0,1-3.5986-3.8565,12.9549,12.9549,0,0,1-1.2568-5.8652q0-5.2164,2.7226-8.1113t7.6563-2.8946a10.7575,10.7575,0,0,1,5.4082,1.3321,8.9084,8.9084,0,0,1,3.5986,3.8281A12.8385,12.8385,0,0,1,336.1191,312.1172Zm-14.7207,0a8.94,8.94,0,0,0,1.0381,4.78,3.7126,3.7126,0,0,0,3.38,1.6181,3.655,3.655,0,0,0,3.3428-1.6084,9.0706,9.0706,0,0,0,1.0185-4.79,8.7936,8.7936,0,0,0-1.0283-4.7412,4.3712,4.3712,0,0,0-6.7217-.01A8.7883,8.7883,0,0,0,321.3984,312.1172Z"></path><path class="cls-1" d="M347.0732,323.1816a6.9121,6.9121,0,0,1-5.8935-2.914q-2.1431-2.9121-2.1426-8.0742,0-5.2355,2.1807-8.1592a7.0793,7.0793,0,0,1,6.0078-2.9229,6.9452,6.9452,0,0,1,6.1318,3.1231h.1905a23.7541,23.7541,0,0,1-.4385-4.2471V293.17h5.8281v29.6309h-4.457l-1.1231-2.7617h-.248A6.644,6.644,0,0,1,347.0732,323.1816Zm2.0381-4.6269a3.9375,3.9375,0,0,0,3.2657-1.2949A7.5387,7.5387,0,0,0,353.51,312.86v-.628q0-3.4276-1.0567-4.914a3.9259,3.9259,0,0,0-3.4375-1.4844,3.41,3.41,0,0,0-3.0185,1.6465,8.7953,8.7953,0,0,0-1.0752,4.789,8.331,8.331,0,0,0,1.0849,4.7139A3.5473,3.5473,0,0,0,349.1113,318.5547Z"></path><path class="cls-1" d="M364.1787,296.0078q0-2.8374,3.1621-2.8379,3.16,0,3.16,2.8379a2.7616,2.7616,0,0,1-.79,2.1035,3.3179,3.3179,0,0,1-2.37.752Q364.1782,298.8633,364.1787,296.0078Zm6.0567,26.793h-5.8086v-21.29h5.8086Z"></path><path class="cls-1" d="M395.3965,322.8008h-5.8086V310.3652a5.9752,5.9752,0,0,0-.8184-3.456,2.9808,2.9808,0,0,0-2.6093-1.1514,3.92,3.92,0,0,0-3.5225,1.6279q-1.0854,1.6275-1.085,5.3985v10.0166h-5.8086v-21.29h4.4375l.78,2.7237h.3233a6.1372,6.1372,0,0,1,2.6757-2.333,9.1034,9.1034,0,0,1,3.875-.79,7.4424,7.4424,0,0,1,5.6368,2.0088,8.0615,8.0615,0,0,1,1.9238,5.7979Z"></path><path class="cls-1" d="M419.32,301.5107v2.9522l-3.333.8564a5.81,5.81,0,0,1,.9141,3.1993,6.4612,6.4612,0,0,1-2.39,5.3418,10.3558,10.3558,0,0,1-6.6367,1.913l-1.0469-.0566-.8574-.0957a1.932,1.932,0,0,0-.8945,1.5234q0,1.2568,3.1992,1.2578h3.6172a8.2539,8.2539,0,0,1,5.3418,1.5039,5.3761,5.3761,0,0,1,1.8379,4.418,6.5527,6.5527,0,0,1-3.1133,5.7891q-3.1143,2.0566-8.9414,2.0566-4.4561,0-6.8076-1.5517a4.93,4.93,0,0,1-2.3516-4.3516,4.5485,4.5485,0,0,1,1.2-3.2178,6.8062,6.8062,0,0,1,3.5225-1.8476,3.8917,3.8917,0,0,1-1.5616-1.2471,3.0677,3.0677,0,0,1,.0381-3.8662,8.1444,8.1444,0,0,1,2.0381-1.59,5.7134,5.7134,0,0,1-2.6572-2.3232,7.0746,7.0746,0,0,1-.98-3.7705,6.646,6.646,0,0,1,2.2666-5.3887,9.7955,9.7955,0,0,1,6.4746-1.9043,16.65,16.65,0,0,1,2.1231.1612q1.2275.1626,1.57.2382ZM402.8857,325.81a2.1049,2.1049,0,0,0,1.1524,1.8857,6.3371,6.3371,0,0,0,3.2275.6856,11.438,11.438,0,0,0,4.8946-.8575,2.6121,2.6121,0,0,0,1.7705-2.3418,1.6583,1.6583,0,0,0-1.0479-1.6572,8.5743,8.5743,0,0,0-3.2363-.457h-3.01a4.5569,4.5569,0,0,0-2.6748.7519A2.32,2.32,0,0,0,402.8857,325.81ZM405,308.4805a4.3323,4.3323,0,0,0,.79,2.7422,2.87,2.87,0,0,0,2.4092,1.01,2.8112,2.8112,0,0,0,2.3985-1.01,4.4512,4.4512,0,0,0,.7617-2.7422q0-3.8468-3.16-3.8467Q405,304.6338,405,308.4805Z"></path><path class="cls-1" d="M190.2158,361.8691a7.1974,7.1974,0,0,1-2.7129,5.9414q-2.7143,2.171-7.5508,2.1709a17.7318,17.7318,0,0,1-7.8837-1.6757v-5.4844a32.5961,32.5961,0,0,0,4.77,1.7715,14.1517,14.1517,0,0,0,3.57.5136,5.086,5.086,0,0,0,2.98-.7421,2.5419,2.5419,0,0,0,1.0372-2.209,2.4384,2.4384,0,0,0-.4571-1.4571,5.1114,5.1114,0,0,0-1.3418-1.2285,34.6415,34.6415,0,0,0-3.6093-1.8847,17.1365,17.1365,0,0,1-3.8272-2.3047,8.6507,8.6507,0,0,1-2.0381-2.57,7.3369,7.3369,0,0,1-.7617-3.4278,7.1954,7.1954,0,0,1,2.5049-5.8086,10.404,10.404,0,0,1,6.9219-2.1132,16.3407,16.3407,0,0,1,4.1416.5136,28.4552,28.4552,0,0,1,4.123,1.4473l-1.9043,4.59a27.9031,27.9031,0,0,0-3.6846-1.2763,11.8663,11.8663,0,0,0-2.8662-.3623,3.7966,3.7966,0,0,0-2.5713.7812,2.5742,2.5742,0,0,0-.8945,2.0371,2.5229,2.5229,0,0,0,.3613,1.3623,3.9729,3.9729,0,0,0,1.1524,1.1231,35.4516,35.4516,0,0,0,3.7422,1.9521,14.8818,14.8818,0,0,1,5.3506,3.7422A7.3016,7.3016,0,0,1,190.2158,361.8691Z"></path><path class="cls-1" d="M205.9131,369.9814a7.0614,7.0614,0,0,1-5.8848-2.7226h-.3047q.3048,2.6659.3047,3.084V378.97h-5.8076V348.3105h4.7227l.8183,2.7608h.2666a6.721,6.721,0,0,1,6.0371-3.16,6.9084,6.9084,0,0,1,5.9034,2.9131q2.1327,2.9136,2.1328,8.0928a15.9692,15.9692,0,0,1-1,5.9228,8.298,8.298,0,0,1-2.8467,3.8272A7.2894,7.2894,0,0,1,205.9131,369.9814Zm-1.7139-17.4238a3.6667,3.6667,0,0,0-3.1426,1.3233,7.5971,7.5971,0,0,0-1.0283,4.37v.6289a8.96,8.96,0,0,0,1.02,4.9121,3.6358,3.6358,0,0,0,3.2275,1.4863q3.9038,0,3.9033-6.4375a9.2,9.2,0,0,0-.9609-4.7129A3.2839,3.2839,0,0,0,204.1992,352.5576Z"></path><path class="cls-1" d="M227.9512,369.9814q-5.1417,0-8.0362-2.8378-2.8944-2.836-2.8945-8.0352,0-5.3511,2.6758-8.2744a9.5229,9.5229,0,0,1,7.3975-2.9229,9.3785,9.3785,0,0,1,7.0273,2.57,9.7272,9.7272,0,0,1,2.5137,7.1036v2.8183H222.9043a5.59,5.59,0,0,0,1.4668,3.8653,5.16,5.16,0,0,0,3.8467,1.3906,15.9645,15.9645,0,0,0,3.6367-.4,18.1961,18.1961,0,0,0,3.58-1.2754v4.4941a13.6549,13.6549,0,0,1-3.2559,1.1329A20.5724,20.5724,0,0,1,227.9512,369.9814Zm-.8194-17.9384a3.6853,3.6853,0,0,0-2.8945,1.1709,5.4216,5.4216,0,0,0-1.1992,3.3232h8.15a4.8432,4.8432,0,0,0-1.124-3.3232A3.8058,3.8058,0,0,0,227.1318,352.043Z"></path><path class="cls-1" d="M249.418,369.9814q-9.9405,0-9.9405-10.9121,0-5.4258,2.7041-8.2929,2.7042-2.8653,7.75-2.8653a14.7764,14.7764,0,0,1,6.627,1.4473l-1.7139,4.4941q-1.371-.5522-2.5517-.9052a8.2384,8.2384,0,0,0-2.3614-.3526q-4.5321,0-4.5322,6.4375,0,6.2462,4.5322,6.2461a10.3218,10.3218,0,0,0,3.1045-.4482,11.1941,11.1941,0,0,0,2.8565-1.3994v4.9707a9.3654,9.3654,0,0,1-2.8467,1.2373A16.0167,16.0167,0,0,1,249.418,369.9814Z"></path><path class="cls-1" d="M259.9922,342.8076q0-2.8374,3.1621-2.8379,3.1583,0,3.16,2.8379a2.7621,2.7621,0,0,1-.7911,2.1035,3.3139,3.3139,0,0,1-2.3691.752Q259.99,345.6631,259.9922,342.8076Zm6.0566,26.793H260.24v-21.29h5.8086Z"></path><path class="cls-1" d="M285.0771,369.6006l-1.124-2.8945h-.1523a8.5881,8.5881,0,0,1-3.0176,2.5615,9.7653,9.7653,0,0,1-4.0469.7138,6.5419,6.5419,0,0,1-4.8271-1.7519,6.7264,6.7264,0,0,1-1.7617-4.9893,5.6181,5.6181,0,0,1,2.3711-4.999q2.37-1.6085,7.15-1.78l3.6944-.1142v-.9336q0-3.2358-3.3135-3.2363a15.0981,15.0981,0,0,0-5.999,1.542l-1.9229-3.9229a17.3086,17.3086,0,0,1,8.15-1.9238q4.2847,0,6.5694,1.8672a6.8961,6.8961,0,0,1,2.2851,5.6738v14.1875Zm-1.7138-9.8643-2.2471.0762a7.1961,7.1961,0,0,0-3.77.9141,2.8711,2.8711,0,0,0-1.2383,2.5517q0,2.4565,2.8184,2.4571a4.466,4.466,0,0,0,3.2285-1.1622,4.0815,4.0815,0,0,0,1.209-3.0849Z"></path><path class="cls-1" d="M300.3359,369.6006h-5.8086V339.97h5.8086Z"></path><path class="cls-1" d="M305.5967,342.8076q0-2.8374,3.1621-2.8379,3.16,0,3.16,2.8379a2.7619,2.7619,0,0,1-.79,2.1035,3.3182,3.3182,0,0,1-2.37.752Q305.5962,345.6631,305.5967,342.8076Zm6.0566,26.793h-5.8086v-21.29h5.8086Z"></path><path class="cls-1" d="M332.0146,363.2783a5.8627,5.8627,0,0,1-2.2753,4.9893q-2.2764,1.7139-6.8086,1.7138a21.3356,21.3356,0,0,1-3.961-.3144,14.8884,14.8884,0,0,1-3.0654-.9238v-4.7989a20.1825,20.1825,0,0,0,3.6465,1.2764,14.77,14.77,0,0,0,3.5713.5147q3.16,0,3.16-1.8282a1.5288,1.5288,0,0,0-.4179-1.1142,6.0934,6.0934,0,0,0-1.4473-.9717q-1.0284-.542-2.7422-1.2656a17.2251,17.2251,0,0,1-3.6094-1.9043,5.3693,5.3693,0,0,1-1.6758-2.01,6.6379,6.6379,0,0,1-.5234-2.7891,5.0582,5.0582,0,0,1,2.1992-4.39,10.71,10.71,0,0,1,6.2364-1.5518,17.704,17.704,0,0,1,7.4843,1.6758l-1.7519,4.19q-1.6-.6857-2.99-1.1241a9.3879,9.3879,0,0,0-2.8369-.4384q-2.5707,0-2.5713,1.3906a1.6336,1.6336,0,0,0,.8291,1.3516,22.4714,22.4714,0,0,0,3.628,1.6953,16.9454,16.9454,0,0,1,3.6562,1.8847,5.5917,5.5917,0,0,1,1.7129,2.02A6.2,6.2,0,0,1,332.0146,363.2783Z"></path><path class="cls-1" d="M344.9307,365.3545a12.5943,12.5943,0,0,0,3.6562-.667v4.3232a13.0526,13.0526,0,0,1-5.332.9707q-3.4835,0-5.0742-1.7617a7.6628,7.6628,0,0,1-1.59-5.2842V352.6709H333.81v-2.4561l3.1992-1.9423,1.6758-4.4942h3.7138v4.5322h5.96v4.36h-5.96v10.2646a2.2661,2.2661,0,0,0,.6954,1.8282A2.74,2.74,0,0,0,344.9307,365.3545Z"></path></g><g><path class="cls-2" d="M114.3508,229.2448H111.2l-17.1-15.756v15.71H91.5979V197.2762H94.1v14.5681l15.7557-14.5681h3.012v.2279L96.5563,212.575l17.7945,16.4868Z"></path><path class="cls-2" d="M116.9454,206.6837v4.0189a9.14,9.14,0,0,1,8.1557-4.43c6.1168,0,10.3338,3.6992,10.3338,9.9559v13.0162h-2.2707v-12.97c0-5.1151-3.1975-7.8556-8.1557-7.81a7.8929,7.8929,0,0,0-8.0168,8.2209v12.559h-2.2708V206.6837Z"></path><path class="cls-2" d="M138.7711,218.01a11.6318,11.6318,0,1,1,23.2627,0c0,7.17-5.19,11.5548-11.6314,11.5548S138.7711,225.18,138.7711,218.01Zm21.0382,0a9.41,9.41,0,1,0-18.8139,0c0,5.8458,4.217,9.3627,9.407,9.3627S159.8093,223.8556,159.8093,218.01Z"></path><path class="cls-2" d="M188.4009,229.2448h-2.5024l-3.7072-9.8647-2.78-8.7686-2.873,8.8142-3.7074,9.8191h-2.5022l-8.1559-22.5611h2.5025l6.9046,19.958,6.9973-19.958h1.6218l6.951,19.958,6.8582-19.958H196.51Z"></path><path class="cls-2" d="M200.9589,197.2762v31.9686h-2.2707V197.2762Z"></path><path class="cls-2" d="M204.48,217.9643a11.4243,11.4243,0,0,1,11.6311-11.646c6.4413,0,12.1874,3.8822,11.307,12.6965H206.797a8.9582,8.9582,0,0,0,9.3143,8.3577c3.0122,0,6.534-1.1873,8.2486-3.4257l1.6218,1.2791c-2.2241,2.8773-6.2094,4.3387-9.87,4.3387C209.67,229.5646,204.48,225.1347,204.48,217.9643Zm20.899-.9131c-.0462-5.5723-3.7534-8.6775-9.2679-8.6775a9.0963,9.0963,0,0,0-9.3143,8.6775Z"></path><path class="cls-2" d="M253.7389,197.2762v31.9686h-2.2242v-4.9782a10.8106,10.8106,0,0,1-9.5459,5.3436c-6.395,0-11.4461-4.1557-11.4461-11.6459,0-7.444,5.0975-11.646,11.4923-11.646,3.9389,0,7.6461,1.6445,9.5,5.2981v-14.34ZM232.747,217.9643c0,6.2567,4.2169,9.4537,9.3606,9.4537a9.4773,9.4773,0,0,0,0-18.9531C236.9639,208.4649,232.747,211.6164,232.747,217.9643Z"></path><path class="cls-2" d="M277.14,205.7706l1.4829,1.2784-2.2244,2.5576a10.4879,10.4879,0,0,1,2.8268,7.6725,10.6558,10.6558,0,0,1-6.1633,9.5906c4.0317,1.4158,6.2559,4.202,6.2559,8.0842,0,6.0737-4.8193,8.9965-10.89,8.9965s-10.8436-3.2882-10.8436-8.9965h2.2706c0,4.6122,3.9853,6.8044,8.573,6.8044s8.6656-2.0092,8.6656-6.8044c0-4.8416-4.4023-6.76-8.6656-6.76-6.6266,0-10.7509-4.8865-10.7509-10.9153,0-7.033,4.8194-11.0064,10.7509-11.0064a11.7364,11.7364,0,0,1,6.4876,2.0554Zm-17.192,11.5085c0,4.6585,3.2436,8.6775,8.48,8.6775a8.7177,8.7177,0,0,0,8.5727-8.6775c0-5.7083-3.8461-8.7686-8.5727-8.7686C263.7479,208.5105,259.948,211.3878,259.948,217.2791Z"></path><path class="cls-2" d="M281.0787,217.9643a11.4246,11.4246,0,0,1,11.6313-11.646c6.4412,0,12.1873,3.8822,11.3069,12.6965H283.3957a8.9581,8.9581,0,0,0,9.3143,8.3577c3.012,0,6.5339-1.1873,8.2485-3.4257l1.622,1.2791c-2.2245,2.8773-6.21,4.3387-9.87,4.3387C286.2689,229.5646,281.0787,225.1347,281.0787,217.9643Zm20.8993-.9131c-.0464-5.5723-3.7536-8.6775-9.268-8.6775a9.0963,9.0963,0,0,0-9.3143,8.6775Z"></path><path class="cls-2" d="M322.6452,220.2333h-8.788v9.0115h-5.8586V198.6226c4.8821,0,9.7644-.0435,14.6466-.0435C337.8245,198.5791,337.8687,220.2333,322.6452,220.2333Zm-8.788-5.2933h8.788c7.5008,0,7.4564-10.8492,0-10.8492h-8.788Z"></path><path class="cls-2" d="M341.9945,201.5972c0,4.1564-6.3914,4.1564-6.3914,0S341.9945,197.4415,341.9945,201.5972Zm-5.9031,5.9934v21.6542h5.415V207.5906Z"></path><path class="cls-2" d="M350.2491,198.6662v30.5786h-5.37V198.6662Z"></path><path class="cls-2" d="M358.8589,198.6662v30.5786h-5.37V198.6662Z"></path><path class="cls-2" d="M379.4521,207.6784h5.193v21.5664h-5.1042l-.2662-3.1494c-1.2429,2.5371-4.66,3.7618-7.1014,3.8053-6.48.0443-11.2736-3.8931-11.2736-11.4609,0-7.4371,5.0154-11.33,11.4068-11.2867,2.9294,0,5.7253,1.356,6.9682,3.5ZM366.3146,218.44a6.2217,6.2217,0,0,0,6.48,6.5616c8.5216,0,8.5216-13.08,0-13.08A6.1867,6.1867,0,0,0,366.3146,218.44Z"></path><path class="cls-2" d="M392.7211,207.6784l.3994,2.4935c1.6866-2.6691,3.95-3.0623,6.1693-3.0623a8.3723,8.3723,0,0,1,5.6369,2.0561l-2.4412,4.6367a5.4567,5.4567,0,0,0-3.906-1.4c-2.8406,0-5.459,1.4873-5.459,5.4682v11.3737h-5.4148V207.6784Z"></path><path class="cls-2" d="M419.7493,213.4092a7.4441,7.4441,0,0,0-5.4151-1.9255c-2.5742,0-3.9945.7879-3.9945,2.1439,0,1.4,1.2873,2.1874,4.0836,2.3622,4.1275.2626,9.3647,1.1811,9.3647,6.9119,0,3.806-3.1512,7.0868-9.4093,7.0868-3.462,0-6.9238-.5688-10.1195-3.85l2.663-3.806c1.5533,1.7064,5.1042,2.9746,7.5453,3.0189,2.0418.0435,3.95-1.0063,3.95-2.5814,0-1.4873-1.2431-2.1-4.35-2.2745-4.1279-.3061-9.0544-1.7941-9.0544-6.6935,0-4.9871,5.2375-6.737,9.2319-6.737,3.4175,0,5.9917.6565,8.5217,2.8439Z"></path></g></g></svg> 