<?xml version="1.0" encoding="UTF-8"?> <svg xmlns="http://www.w3.org/2000/svg" id="Layer_1" data-name="Layer 1" width="512" height="512" viewBox="0 0 512 512"><defs><style> .cls-1 { fill: #eee; } .cls-2 { fill: #fff; } .cls-3 { fill: #eabc07; } .cls-4 { fill: #2092c0; } .cls-5 { fill: #002855; } .cls-6 { fill: #ac82ba; } </style></defs><g><path class="cls-1" d="M239.7514,485.11c8.9442,5.1643,23.58,5.1639,32.5238-.0009L446.2911,384.62c8.9439-5.1648,16.2616-17.8408,16.2616-28.1689v-200.93c0-10.3281-7.3182-23.0033-16.2626-28.1673L272.2761,26.889c-8.9444-5.1639-23.5809-5.1644-32.5256-.0009L65.71,127.3551c-8.9447,5.1635-16.2631,17.8383-16.2631,28.1664v200.93c0,10.3281,7.318,23.0037,16.2622,28.168ZM72.5519,168.8666c0-10.328,7.3181-23.0035,16.2623-28.1676l150.937-87.1463c8.9443-5.1642,23.58-5.1637,32.5241.001l150.9111,87.1442c8.9439,5.1648,16.2617,17.8407,16.2617,28.1687V343.1334c0,10.328-7.3182,23.0031-16.2628,28.1669l-150.909,87.121c-8.9445,5.1637-23.5812,5.1642-32.5261.001L88.8153,371.2992c-8.9449-5.1631-16.2634-17.8378-16.2634-28.1658Z"></path><path class="cls-2" d="M272.2765,448.6215c-8.9446,5.1636-23.5815,5.1641-32.5265.0011L97.3079,366.4056c-8.945-5.163-16.2636-17.8375-16.2636-28.1655V173.7868c0-10.3281,7.3181-23.0034,16.2625-28.1675l142.4443-82.24c8.9444-5.164,23.58-5.1635,32.5243.0011l142.4184,82.238c8.9441,5.1646,16.2619,17.84,16.2619,28.1685V338.24c0,10.328-7.3183,23.003-16.2629,28.1666Z"></path><g><path class="cls-3" d="M301.3576,119.1629v35.7584a5.9912,5.9912,0,0,1-5.9735,5.9736H273.5473a5.9912,5.9912,0,0,1-5.9735-5.9736V139.7966a11.8435,11.8435,0,0,1,5.0941-9.0848l23.5955-14.4112C299.0677,114.5915,301.3576,115.8775,301.3576,119.1629Z"></path><path class="cls-4" d="M284.529,103.3587v58.2406c0,5.0754-2.8649,7.1265-6.3664,7.1265H254.8893c-3.5015,0-6.3664-2.4469-6.3664-7.5223V123.6087c0-5.0754,2.0272-7.1625,5.0944-9.6068l24.9461-15.2406C282.2672,96.2751,284.529,98.2338,284.529,103.3587Z"></path><path class="cls-5" d="M262.8687,103.0874V165.425a10.4444,10.4444,0,0,1-10.4137,10.4138H214.3871a10.4444,10.4444,0,0,1-10.4136-10.4138V139.0581c0-5.7275,3.9915-12.858,8.88-15.8374l41.134-25.1231C258.8767,95.1181,262.8687,97.36,262.8687,103.0874Z"></path></g><path class="cls-5" d="M74.6886,266.1091v71.4538c0,12.2934,8.7112,27.38,19.3581,33.5249L236.656,453.4012c10.6469,6.1454,28.0689,6.1448,38.7155-.0013L417.954,371.0891c10.6466-6.1461,19.3574-21.2328,19.3574-33.5262V266.1091Z"></path><g><path class="cls-2" d="M152.3721,326.8423H144.69l-4.31-16.7139q-.24-.892-.8164-3.6889t-.6631-3.754q-.13,1.1755-.6534,3.7759-.5214,2.6008-.8046,3.71l-4.2881,16.67h-7.66l-8.1172-31.8174h6.6377l4.0694,17.3667q1.0663,4.81,1.5449,8.3355.13-1.2408.5986-3.8414t.8819-4.0371l4.6347-17.8237h6.377l4.6357,17.8237q.3047,1.1976.7617,3.6563t.6963,4.2222q.2169-1.6979.6963-4.233.4776-2.5349.87-4.1025l4.0479-17.3667h6.6377Z"></path><path class="cls-2" d="M185.7842,304.9487q0,5.1365-3.21,7.8565t-9.1289,2.72h-2.8945v11.3169h-6.7471V295.0249h10.1631q5.7891,0,8.8037,2.4922T185.7842,304.9487Zm-15.2334,5.0493h2.22a7.3932,7.3932,0,0,0,4.6572-1.23,4.3044,4.3044,0,0,0,1.545-3.58,4.4123,4.4123,0,0,0-1.295-3.5039,6.0684,6.0684,0,0,0-4.0586-1.1319h-3.0683Z"></path><path class="cls-2" d="M215.5459,300.1831a6.8748,6.8748,0,0,0-5.8975,2.8613q-2.0888,2.8623-2.0888,7.9761,0,10.642,7.9863,10.6421a25.2385,25.2385,0,0,0,8.1182-1.6758v5.6587a22.5532,22.5532,0,0,1-8.7491,1.6318q-6.9418,0-10.62-4.2109t-3.6777-12.0893a19.742,19.742,0,0,1,1.8057-8.6939,13.0527,13.0527,0,0,1,5.19-5.7236,15.3529,15.3529,0,0,1,7.9326-1.9917A21.41,21.41,0,0,1,224.86,296.81l-2.1758,5.4843a36.1331,36.1331,0,0,0-3.5908-1.48A10.726,10.726,0,0,0,215.5459,300.1831Z"></path><path class="cls-2" d="M240.2529,327.2773q-5.8755,0-9.1836-3.2426t-3.3086-9.1836q0-6.115,3.0586-9.4561a10.8863,10.8863,0,0,1,8.4541-3.34q5.1577,0,8.03,2.938t2.8731,8.1172v3.2212h-15.69a6.3844,6.3844,0,0,0,1.6758,4.4174,5.8926,5.8926,0,0,0,4.3955,1.5889,18.2555,18.2555,0,0,0,4.1572-.457,20.7979,20.7979,0,0,0,4.0909-1.458v5.1357a15.5747,15.5747,0,0,1-3.7217,1.2949A23.4435,23.4435,0,0,1,240.2529,327.2773Zm-.9355-20.5a4.2084,4.2084,0,0,0-3.3076,1.3383,6.1847,6.1847,0,0,0-1.3711,3.7979h9.3144a5.5344,5.5344,0,0,0-1.2842-3.7979A4.3484,4.3484,0,0,0,239.3174,306.7769Z"></path><path class="cls-2" d="M268.4854,302.0547a10.6951,10.6951,0,0,1,2.2421.1958l-.5009,6.2241a7.6085,7.6085,0,0,0-1.959-.2178,7.0342,7.0342,0,0,0-4.95,1.6324,5.9,5.9,0,0,0-1.7744,4.57v12.3828h-6.6377V302.5117h5.0273l.98,4.0913h.3262a9.16,9.16,0,0,1,3.0576-3.2973A7.5423,7.5423,0,0,1,268.4854,302.0547Z"></path><path class="cls-2" d="M284.7266,321.9893a14.3851,14.3851,0,0,0,4.1787-.7618v4.94a14.8968,14.8968,0,0,1-6.0938,1.11q-3.983,0-5.8-2.0127t-1.8174-6.0395v-11.73h-3.1767V304.688l3.6562-2.22,1.9151-5.1358h4.2431v5.18h6.8116v4.9834H281.832v11.73a2.5884,2.5884,0,0,0,.795,2.0894A3.1309,3.1309,0,0,0,284.7266,321.9893Z"></path><path class="cls-2" d="M292.8721,296.2222q0-3.2425,3.6123-3.2427t3.6123,3.2427a3.16,3.16,0,0,1-.9033,2.4048,3.7938,3.7938,0,0,1-2.709.8593Q292.8721,299.4863,292.8721,296.2222Zm6.92,30.62h-6.6377V302.5117h6.6377Z"></path><path class="cls-2" d="M319.5381,307.4951H313.792v19.3472h-6.6377V307.4951H303.498v-3.1992l3.6563-1.7842v-1.7846q0-4.1565,2.0459-6.0718t6.5508-1.9156a17.0538,17.0538,0,0,1,6.1152,1.023l-1.6973,4.875a12.3867,12.3867,0,0,0-3.7-.6314,2.3941,2.3941,0,0,0-2.045.8379,3.4614,3.4614,0,0,0-.6318,2.1441v1.5234h5.7461Zm3.5254-11.2729q0-3.2425,3.6123-3.2427t3.6123,3.2427a3.163,3.163,0,0,1-.9024,2.4048,3.7976,3.7976,0,0,1-2.71.8593Q323.0635,299.4863,323.0635,296.2222Zm6.92,30.62h-6.6377V302.5117h6.6377Z"></path><path class="cls-2" d="M347.27,327.2773q-5.8768,0-9.1845-3.2426t-3.3077-9.1836q0-6.115,3.0577-9.4561a10.8867,10.8867,0,0,1,8.455-3.34q5.1577,0,8.03,2.938t2.8731,8.1172v3.2212H341.502a6.3839,6.3839,0,0,0,1.6757,4.4174,5.8951,5.8951,0,0,0,4.3965,1.5889,18.2475,18.2475,0,0,0,4.1563-.457,20.83,20.83,0,0,0,4.0918-1.458v5.1357a15.5747,15.5747,0,0,1-3.7217,1.2949A23.4435,23.4435,0,0,1,347.27,327.2773Zm-.9365-20.5a4.21,4.21,0,0,0-3.3076,1.3383,6.1968,6.1968,0,0,0-1.3711,3.7979h9.3145a5.5349,5.5349,0,0,0-1.2842-3.7979A4.3488,4.3488,0,0,0,346.333,306.7769Z"></path><path class="cls-2" d="M369.626,327.2773a7.9018,7.9018,0,0,1-6.7354-3.33q-2.4492-3.33-2.4492-9.2276,0-5.9845,2.4922-9.3252a8.0934,8.0934,0,0,1,6.8662-3.34,7.937,7.937,0,0,1,7.0078,3.5688h.2178a27.1089,27.1089,0,0,1-.501-4.853V292.98h6.6592v33.8628h-5.0918l-1.2842-3.1558h-.2832A7.595,7.595,0,0,1,369.626,327.2773Zm2.3281-5.288a4.4969,4.4969,0,0,0,3.7324-1.48q1.1865-1.48,1.2949-5.0274v-.7177q0-3.9178-1.208-5.6153a4.4853,4.4853,0,0,0-3.9277-1.6972,3.8957,3.8957,0,0,0-3.4492,1.8823,10.04,10.04,0,0,0-1.23,5.4736,9.5182,9.5182,0,0,0,1.24,5.3862A4.0525,4.0525,0,0,0,371.9541,321.9893Z"></path><path class="cls-2" d="M214.49,380.3267H196.166V348.5093H214.49v5.5278H202.9131v6.9858h10.7724v5.5279H202.9131v8.2046H214.49Z"></path><path class="cls-2" d="M227.6416,380.7617a7.9017,7.9017,0,0,1-6.7354-3.33q-2.4492-3.33-2.4492-9.2275,0-5.9847,2.4922-9.3252a8.0933,8.0933,0,0,1,6.8662-3.34,7.9369,7.9369,0,0,1,7.0078,3.5688h.2178a27.11,27.11,0,0,1-.501-4.853v-7.791h6.6592v33.8628h-5.0918l-1.2842-3.1558H234.54A7.5952,7.5952,0,0,1,227.6416,380.7617Zm2.3281-5.2881a4.4968,4.4968,0,0,0,3.7324-1.48q1.1867-1.48,1.295-5.0274v-.7178q0-3.9177-1.208-5.6152a4.4857,4.4857,0,0,0-3.9278-1.6973,3.8959,3.8959,0,0,0-3.4492,1.8824,10.04,10.04,0,0,0-1.23,5.4736,9.5176,9.5176,0,0,0,1.24,5.3862A4.0521,4.0521,0,0,0,229.97,375.4736Z"></path><path class="cls-2" d="M247.19,349.7065q0-3.2424,3.6123-3.2426t3.6133,3.2426a3.1632,3.1632,0,0,1-.9033,2.4048,3.7975,3.7975,0,0,1-2.71.8594Q247.19,352.9707,247.19,349.7065Zm6.9209,30.62h-6.6377V355.9961h6.6377Z"></path><path class="cls-2" d="M270.6572,375.4736a14.3877,14.3877,0,0,0,4.1778-.7617v4.94a14.8888,14.8888,0,0,1-6.0928,1.11q-3.983,0-5.8-2.0127t-1.8174-6.04V360.98h-3.1777v-2.8071l3.6562-2.22,1.9151-5.1357h4.2441v5.18h6.8115V360.98h-6.8115v11.73a2.591,2.591,0,0,0,.7939,2.0893A3.1317,3.1317,0,0,0,270.6572,375.4736Z"></path><path class="cls-2" d="M301.1963,368.1177q0,5.9413-3.1348,9.2929-3.1332,3.3516-8.7265,3.3511a12.2079,12.2079,0,0,1-6.1807-1.5342,10.2145,10.2145,0,0,1-4.1133-4.4067,14.8157,14.8157,0,0,1-1.4365-6.7031q0-5.9626,3.1123-9.271t8.749-3.3076a12.2834,12.2834,0,0,1,6.1807,1.5229,10.1773,10.1773,0,0,1,4.1133,4.3745A14.6806,14.6806,0,0,1,301.1963,368.1177Zm-16.8233,0A10.2073,10.2073,0,0,0,285.56,373.58a4.24,4.24,0,0,0,3.8623,1.85,4.1736,4.1736,0,0,0,3.8193-1.8389,10.3566,10.3566,0,0,0,1.165-5.4736,10.0535,10.0535,0,0,0-1.1757-5.419,4.9965,4.9965,0,0,0-7.6817-.0107A10.0331,10.0331,0,0,0,284.373,368.1177Z"></path><path class="cls-2" d="M319.5918,355.5391a10.6792,10.6792,0,0,1,2.2412.1958l-.5,6.2241a7.6133,7.6133,0,0,0-1.959-.2178,7.0388,7.0388,0,0,0-4.9511,1.6323,5.8988,5.8988,0,0,0-1.7735,4.57v12.3829h-6.6377V355.9961h5.0274l.9795,4.0913h.3261a9.1436,9.1436,0,0,1,3.0576-3.2974A7.5406,7.5406,0,0,1,319.5918,355.5391Z"></path></g><g><path class="cls-5" d="M115.4841,232.0934H112.395L95.6327,216.648v15.4008H93.18V200.7551h2.4529V215.036l15.4451-14.2809H114.03v.2234L98.04,215.7523l17.4437,16.1617Z"></path><path class="cls-5" d="M118.0275,209.9771v3.94a8.96,8.96,0,0,1,7.9948-4.3425c5.9963,0,10.13,3.6262,10.13,9.76v12.76h-2.2259V219.3792c0-5.0142-3.1344-7.7007-7.9949-7.656a7.7373,7.7373,0,0,0-7.8587,8.0589v12.3113h-2.226V209.9771Z"></path><path class="cls-5" d="M139.4229,221.08a11.4025,11.4025,0,1,1,22.804,0c0,7.029-5.0879,11.3269-11.402,11.3269S139.4229,228.109,139.4229,221.08Zm20.6233,0a9.2241,9.2241,0,1,0-18.4429,0c0,5.73,4.1338,9.178,9.2216,9.178S160.0462,226.8105,160.0462,221.08Z"></path><path class="cls-5" d="M188.0742,232.0934h-2.4531l-3.6341-9.67-2.7255-8.5958-2.8164,8.64-3.6343,9.6255h-2.4529l-7.995-22.1163h2.4531l6.7685,19.5646,6.8593-19.5646h1.59l6.8139,19.5646,6.723-19.5646h2.4531Z"></path><path class="cls-5" d="M200.3846,200.7551v31.3383h-2.226V200.7551Z"></path><path class="cls-5" d="M203.8364,221.0353a11.1992,11.1992,0,0,1,11.4018-11.4164c6.3143,0,11.9471,3.8057,11.0841,12.4462H206.1076a8.7814,8.7814,0,0,0,9.1306,8.1929c2.9528,0,6.4052-1.1639,8.0859-3.3582l1.59,1.2539c-2.18,2.8206-6.087,4.2532-9.6758,4.2532C208.924,232.4069,203.8364,228.0643,203.8364,221.0353Zm20.487-.8951c-.0454-5.4624-3.6795-8.5064-9.0852-8.5064a8.9169,8.9169,0,0,0-9.1306,8.5064Z"></path><path class="cls-5" d="M252.1239,200.7551v31.3383h-2.18v-4.88a10.5976,10.5976,0,0,1-9.3578,5.2383c-6.2689,0-11.22-4.0738-11.22-11.4163,0-7.2972,4.997-11.4164,11.2658-11.4164,3.8612,0,7.4953,1.6121,9.3124,5.1936V200.7551Zm-20.578,20.28c0,6.1333,4.1338,9.2674,9.176,9.2674a9.29,9.29,0,0,0,0-18.5795C235.68,211.7232,231.5459,214.8125,231.5459,221.0353Z"></path><path class="cls-5" d="M275.0636,209.082l1.4536,1.2533-2.18,2.507a10.2821,10.2821,0,0,1,2.771,7.5213,10.4457,10.4457,0,0,1-6.0418,9.4015c3.9522,1.3879,6.1325,4.1191,6.1325,7.9248,0,5.9539-4.7242,8.8192-10.675,8.8192s-10.63-3.2234-10.63-8.8192H258.12c0,4.5213,3.9067,6.67,8.404,6.67s8.4947-1.9695,8.4947-6.67c0-4.7461-4.3155-6.6262-8.4947-6.6262-6.496,0-10.5389-4.79-10.5389-10.7,0-6.8943,4.7244-10.7893,10.5389-10.7893a11.5044,11.5044,0,0,1,6.36,2.0148Zm-16.853,11.2816c0,4.5667,3.18,8.5064,8.3129,8.5064a8.5458,8.5458,0,0,0,8.4037-8.5064c0-5.5957-3.77-8.5957-8.4037-8.5957C261.9355,211.7679,258.2106,214.5884,258.2106,220.3636Z"></path><path class="cls-5" d="M278.9246,221.0353a11.1994,11.1994,0,0,1,11.402-11.4164c6.3143,0,11.9471,3.8057,11.084,12.4462H281.1959a8.7816,8.7816,0,0,0,9.1307,8.1929c2.9526,0,6.4052-1.1639,8.0859-3.3582l1.59,1.2539c-2.1806,2.8206-6.0873,4.2532-9.6759,4.2532C284.0125,232.4069,278.9246,228.0643,278.9246,221.0353Zm20.4873-.8951c-.0455-5.4624-3.68-8.5064-9.0853-8.5064a8.9172,8.9172,0,0,0-9.1307,8.5064Z"></path><path class="cls-5" d="M319.6716,223.26h-8.6147v8.8338h-5.7431V202.075c4.7858,0,9.5719-.0427,14.3578-.0427C334.5516,202.0323,334.595,223.26,319.6716,223.26Zm-8.6147-5.189h8.6147c7.3529,0,7.3094-10.6353,0-10.6353h-8.6147Z"></path><path class="cls-5" d="M338.6394,204.9909c0,4.0745-6.2654,4.0745-6.2654,0S338.6394,200.9171,338.6394,204.9909Zm-5.7867,5.8753v21.2272h5.3082V210.8662Z"></path><path class="cls-5" d="M346.7313,202.1177v29.9757h-5.2646V202.1177Z"></path><path class="cls-5" d="M355.1713,202.1177v29.9757h-5.2646V202.1177Z"></path><path class="cls-5" d="M375.3585,210.9522h5.0906v21.1412h-5.0036l-.2609-3.0873c-1.2184,2.4871-4.5685,3.6876-6.9614,3.73-6.3523.0433-11.0513-3.8163-11.0513-11.2349,0-7.2906,4.9165-11.1069,11.1819-11.0642,2.8716,0,5.6124,1.3292,6.8308,3.4308ZM362.48,221.5015a6.0989,6.0989,0,0,0,6.3523,6.4321c8.3537,0,8.3537-12.8223,0-12.8223A6.0648,6.0648,0,0,0,362.48,221.5015Z"></path><path class="cls-5" d="M388.3659,210.9522l.3915,2.4444c1.6534-2.6165,3.8723-3.002,6.0476-3.002a8.2074,8.2074,0,0,1,5.5258,2.0156l-2.3931,4.5453a5.3491,5.3491,0,0,0-3.829-1.372c-2.7845,0-5.3513,1.458-5.3513,5.36v11.1495h-5.308V210.9522Z"></path><path class="cls-5" d="M414.8611,216.57a7.2972,7.2972,0,0,0-5.3083-1.8875c-2.5234,0-3.9157.7723-3.9157,2.1016,0,1.3726,1.2619,2.1442,4.0031,2.3157,4.0461.2574,9.18,1.1578,9.18,6.7756,0,3.731-3.089,6.947-9.2237,6.947-3.3938,0-6.7873-.5575-9.92-3.7736l2.6105-3.731c1.5226,1.6727,5.0035,2.916,7.3965,2.9593,2.0016.0427,3.8724-.9864,3.8724-2.53,0-1.458-1.2185-2.0583-4.2639-2.23-4.0464-.3-8.8759-1.7587-8.8759-6.5615,0-4.8888,5.1343-6.6042,9.05-6.6042,3.35,0,5.8736.6436,8.3537,2.7878Z"></path></g><path class="cls-6" d="M239.75,458.4357c8.9449,5.1632,23.5816,5.1627,32.5261-.001l150.909-87.121c8.9446-5.1638,16.2628-17.8389,16.2628-28.1669V168.88c0-10.328-7.3178-23.0039-16.2617-28.1686L272.2753,53.5671c-8.9439-5.1647-23.58-5.1652-32.5241-.001L88.8142,140.7124c-8.9442,5.1641-16.2623,17.84-16.2623,28.1676V343.1468c0,10.328,7.3185,23.0027,16.2634,28.1658ZM81.0443,173.7868c0-10.3281,7.3181-23.0034,16.2625-28.1675l142.4443-82.24c8.9444-5.164,23.58-5.1635,32.5243.0011l142.4184,82.238c8.9441,5.1646,16.2619,17.84,16.2619,28.1685V338.24c0,10.328-7.3183,23.003-16.2629,28.1666L272.2765,448.6215c-8.9446,5.1636-23.5815,5.1641-32.5265.0011L97.3079,366.4056c-8.945-5.163-16.2636-17.8375-16.2636-28.1655Z"></path></g></svg> 